# xmcd CD database file
# Generated: mar nov 28 20:33:22 2006 by KSCD
# 
# Track frame offsets:
#       150
#       12748
#       28764
#       46240
#       61443
#       80579
#       99599
#       121500
#       139995
#       158252
#       172308
#       187263
#       210546
#       227195
#       247860
#       270146
#       294598
#       307836
#       320291
#       334134
#
# Disc length: 4738 seconds
#
# Revision: 2
# Processed by: cddbd v1.5.2PL0 Copyright (c) Steve Scherf et al.
# Submitted via: Kscd 1.3.3
#
DISCID=14128014
DTITLE=ww - wwwww
DYEAR=1900
DGENRE=
TTITLE0=rrrr
TTITLE1=
TTITLE2=
TTITLE3=
TTITLE4=
TTITLE5=
TTITLE6=
TTITLE7=
TTITLE8=
TTITLE9=
TTITLE10=
TTITLE11=
TTITLE12=
TTITLE13=
TTITLE14=
TTITLE15=
TTITLE16=
TTITLE17=
TTITLE18=
TTITLE19=
EXTD=
EXTT0=
EXTT1=
EXTT2=
EXTT3=
EXTT4=
EXTT5=
EXTT6=
EXTT7=
EXTT8=
EXTT9=
EXTT10=
EXTT11=
EXTT12=
EXTT13=
EXTT14=
EXTT15=
EXTT16=
EXTT17=
EXTT18=
EXTT19=
PLAYORDER=
